<?xml version="1.0" standalone="no"?><!DOCTYPE svg PUBLIC "-//W3C//DTD SVG 1.1//EN" "http://www.w3.org/Graphics/SVG/1.1/DTD/svg11.dtd"><svg t="1618706686448" class="icon" viewBox="0 0 1024 1024" version="1.1" xmlns="http://www.w3.org/2000/svg" p-id="1896" xmlns:xlink="http://www.w3.org/1999/xlink" width="32" height="32"><defs><style type="text/css"></style></defs><path d="M573.44 733.866667c-20.48 0-34.133333-13.653333-34.133333-34.133334s13.653333-34.133333 34.133333-34.133333c13.653333 0 27.306667-10.24 27.306667-27.306667v-6.826666c0-58.026667 17.066667-116.053333 51.2-157.013334 27.306667-30.72 40.96-71.68 40.96-112.64 0-54.613333-23.893333-102.4-64.853334-136.533333S532.48 177.493333 477.866667 187.733333c-71.68 17.066667-126.293333 71.68-139.946667 143.36-10.24 51.2 3.413333 102.4 34.133333 143.36 34.133333 44.373333 54.613333 102.4 54.613334 157.013334v6.826666c0 13.653333 10.24 27.306667 27.306666 27.306667 20.48 0 34.133333 13.653333 34.133334 34.133333s-13.653333 34.133333-34.133334 34.133334c-51.2 0-95.573333-40.96-95.573333-95.573334v-6.826666c0-40.96-13.653333-85.333333-40.96-116.053334-44.373333-54.613333-61.44-126.293333-47.786667-197.973333 17.066667-98.986667 95.573333-177.493333 194.56-194.56 75.093333-13.653333 150.186667 3.413333 204.8 51.2s88.746667 116.053333 88.746667 191.146667c0 54.613333-20.48 112.64-54.613333 153.6-23.893333 27.306667-37.546667 68.266667-37.546667 112.64v6.826666c3.413333 51.2-40.96 95.573333-92.16 95.573334z m40.96 68.266666c0-20.48-13.653333-34.133333-34.133333-34.133333h-136.533334c-20.48 0-34.133333 13.653333-34.133333 34.133333s13.653333 34.133333 34.133333 34.133334h136.533334c20.48 0 34.133333-17.066667 34.133333-34.133334z m-34.133333 102.4c0-20.48-13.653333-34.133333-34.133334-34.133333h-68.266666c-20.48 0-34.133333 13.653333-34.133334 34.133333s13.653333 34.133333 34.133334 34.133334h68.266666c20.48 0 34.133333-17.066667 34.133334-34.133334z" fill="#d81e06" p-id="1897"></path></svg>